# xmcd CD database file
#
# Track frame offsets:
#	150
#	17350
#	33490
#	43550
#	58190
#	75940
#	90090
#	102235
#	113058
#	130403
#	146280
#	162928
#	178572
#	193845
#	211535
#	224555
#	240883
#	254223
#
# Disc length: 3596 seconds
#
# Revision: 0
# Processed by: cddbd v1.5PL3 Copyright (c) Steve Scherf et al.
# Submitted via: CDex 1.50beta10
#
DISCID=e80e0a12
DTITLE=California Sun - Der Partywurm
DYEAR=1996
DGENRE=Fetenhits
TTITLE0=California Sun - Fürstenfeld
TTITLE1=California Sun - Who The X...is Alice
TTITLE2=California Sun - La Bamba
TTITLE3=California Sun - Cotton Eye Joe
TTITLE4=California Sun - Hooray, Hoorey, It's A Holy Holy Day
TTITLE5=California Sun - Mief
TTITLE6=California Sun - Mir geh'n no lang net ins Bett
TTITLE7=California Sun - Do Wah Diddy
TTITLE8=California Sun - Olé, Olé, wir san die Champions
TTITLE9=California Sun - I Wanna Be With You
TTITLE10=California Sun - Skandal im Sperrbezirk
TTITLE11=California Sun - Na Na Na Na, Hey Hey Hey
TTITLE12=California Sun - Kreuzberger Nächte
TTITLE13=California Sun - Eviva Espana
TTITLE14=California Sun - Marmor, Stein und Eisen bricht
TTITLE15=California Sun - An der Nordseeküste
TTITLE16=California Sun - Hang On Sloopy
TTITLE17=California Sun - Sierra Madre
EXTD=YEAR: 1996
EXTT0=
EXTT1=
EXTT2=
EXTT3=
EXTT4=
EXTT5=
EXTT6=
EXTT7=
EXTT8=
EXTT9=
EXTT10=
EXTT11=
EXTT12=
EXTT13=
EXTT14=
EXTT15=
EXTT16=
EXTT17=
PLAYORDER=
